<?xml version="1.0" standalone="no"?>
<!DOCTYPE svg PUBLIC "-//W3C//DTD SVG 20010904//EN"
 "http://www.w3.org/TR/2001/REC-SVG-20010904/DTD/svg10.dtd">
<svg version="1.0" xmlns="http://www.w3.org/2000/svg"
 width="520.000000pt" height="520.000000pt" viewBox="0 0 520.000000 520.000000"
 preserveAspectRatio="xMidYMid meet">
<metadata>
Created by potrace 1.11, written by Peter Selinger 2001-2013
</metadata>
<g transform="translate(0.000000,520.000000) scale(0.100000,-0.100000)"
fill="#000000" stroke="none">
<path d="M3037 4434 c-1 -1 -20 -4 -42 -7 -22 -3 -54 -11 -70 -18 -17 -7 -37
-13 -45 -15 -20 -4 -62 -26 -78 -41 -7 -7 -18 -13 -24 -13 -22 0 -129 -96
-184 -166 -59 -73 -152 -244 -163 -296 -1 -4 -10 -28 -21 -53 -11 -25 -19 -49
-18 -53 1 -4 -2 -14 -5 -22 -7 -17 -31 -100 -33 -115 0 -5 -4 -17 -7 -25 -4
-8 -9 -26 -11 -40 -3 -14 -7 -35 -10 -47 -6 -27 -6 -27 62 -9 29 8 55 15 57
15 3 1 6 1 8 2 1 0 13 3 27 5 14 3 27 9 28 14 2 6 7 8 11 6 14 -9 32 11 37 40
13 72 82 263 122 339 44 82 99 165 106 158 3 -4 6 -1 6 5 0 6 15 25 33 42 87
83 204 120 307 96 113 -27 164 -99 144 -202 -5 -22 -7 -42 -6 -46 1 -5 -3 -8
-9 -8 -5 0 -7 -4 -4 -10 3 -5 3 -10 -2 -10 -4 0 -14 -12 -20 -27 -7 -16 -28
-44 -47 -64 -19 -20 -32 -40 -28 -44 4 -4 2 -5 -3 -3 -6 2 -24 -10 -40 -25
-17 -15 -51 -42 -77 -58 -27 -17 -48 -35 -48 -41 0 -5 -4 -7 -8 -4 -5 3 -21
-4 -38 -15 -43 -29 -216 -109 -235 -109 -4 0 -18 -4 -31 -9 -13 -5 -25 -8 -28
-8 -3 0 -15 -5 -28 -12 -13 -7 -31 -14 -40 -16 -23 -4 -134 -35 -152 -42 -8
-3 -24 -8 -35 -9 -11 -2 -31 -7 -45 -10 -14 -3 -25 -5 -25 -4 0 1 -12 -3 -26
-8 -14 -6 -48 -13 -75 -16 -27 -4 -65 -9 -84 -11 -19 -3 -62 -7 -95 -10 -33
-3 -69 -8 -81 -10 -11 -3 -45 -7 -75 -11 -172 -19 -282 -85 -337 -203 -43 -94
-31 -199 35 -285 44 -57 120 -103 200 -122 l55 -13 -21 20 c-35 33 -53 67 -66
122 -22 100 -4 166 59 214 39 30 136 69 196 78 14 2 36 6 50 9 73 16 110 24
162 31 l38 6 -6 -38 c-3 -21 -10 -46 -16 -56 -5 -10 -7 -21 -4 -24 3 -4 1 -12
-5 -20 -6 -7 -9 -13 -6 -13 3 0 -1 -17 -10 -37 -8 -21 -15 -40 -15 -43 -1 -7
-2 -13 -29 -95 -13 -38 -24 -74 -25 -80 -4 -16 -73 -208 -83 -230 -14 -28 -25
-69 -23 -77 1 -5 -2 -8 -6 -8 -5 0 -15 -19 -22 -42 -8 -24 -24 -67 -38 -96
-13 -30 -24 -62 -25 -73 -1 -10 -7 -21 -14 -23 -7 -3 -13 -14 -13 -25 0 -11
-4 -22 -9 -25 -4 -3 -11 -19 -14 -35 l-6 -29 -78 26 c-68 22 -95 25 -213 26
-116 0 -144 -3 -200 -23 -255 -90 -417 -331 -363 -541 39 -152 178 -281 343
-319 138 -32 348 18 454 108 80 67 175 175 176 198 0 6 -21 29 -46 50 -25 21
-51 43 -57 48 -29 26 -146 105 -155 105 -6 0 -25 -26 -43 -57 -41 -72 -99
-129 -170 -168 -130 -71 -312 -11 -335 110 -34 184 136 303 349 244 169 -47
432 -229 602 -416 39 -42 88 -96 111 -120 22 -23 39 -45 36 -48 -3 -3 2 -5 11
-5 10 0 16 -4 15 -9 -4 -13 245 -270 256 -264 5 3 6 1 2 -5 -4 -7 3 -17 18
-24 14 -6 26 -16 27 -22 0 -11 169 -153 175 -149 2 1 16 -9 31 -23 32 -30 145
-101 149 -94 1 3 10 -2 20 -11 16 -14 88 -52 104 -55 3 0 12 -3 20 -7 41 -16
111 -36 151 -43 76 -12 246 -7 255 8 3 4 10 6 15 3 5 -4 15 -3 22 2 6 4 20 9
30 10 37 6 122 57 161 97 57 59 89 136 93 219 3 87 -6 111 -22 64 -14 -42 -55
-96 -72 -96 -7 -1 -13 -5 -13 -10 0 -27 -207 -56 -270 -39 -79 22 -151 58
-197 101 -13 11 -23 18 -23 15 0 -3 -16 10 -35 29 -19 19 -35 36 -35 37 0 3
-173 176 -176 176 -2 0 -20 18 -41 40 -104 111 -243 247 -247 243 -2 -2 -7 5
-11 16 -3 11 -15 23 -26 26 -11 4 -18 9 -16 11 2 3 -25 33 -61 67 -36 34 -76
72 -87 84 -12 13 -25 20 -28 16 -4 -3 -7 -1 -7 4 0 6 -37 42 -82 79 -44 37
-77 61 -73 53 5 -8 -8 2 -29 21 -20 19 -42 34 -47 32 -5 -1 -9 2 -9 7 0 4 -18
20 -39 34 l-39 26 30 83 c16 46 31 88 32 93 2 6 6 17 9 25 9 23 27 84 27 92 1
4 8 27 16 50 9 24 18 54 20 67 3 13 9 32 15 43 5 10 7 23 4 28 -3 6 -2 10 4
10 5 0 8 8 7 18 -2 9 1 24 5 32 8 13 53 186 65 245 4 21 11 52 18 83 24 98 34
144 42 186 2 16 6 32 8 35 2 3 7 22 10 41 14 88 20 101 51 107 24 5 50 11 55
14 3 1 10 3 15 4 6 2 13 4 18 5 4 1 10 3 15 5 4 1 14 4 22 7 8 4 43 14 78 24
34 10 62 22 62 26 0 5 4 6 10 3 5 -3 24 0 42 8 29 13 61 26 78 32 16 6 55 23
136 60 251 116 424 289 463 464 15 71 5 173 -24 235 -25 53 -85 137 -85 120 0
-5 -5 -1 -11 9 -21 36 -132 91 -206 103 -39 5 -162 12 -166 8z"/>
</g>
</svg>
